<svg id="Capa_1" enable-background="new 0 0 501 501" height="512" viewBox="0 0 501 501" width="512" xmlns="http://www.w3.org/2000/svg"><g><path d="m70.551 422.265c-40.443-43.75-65.131-102.28-65.051-166.577.168-134.926 110.489-244.912 245.415-244.688 135.119.225 244.585 109.829 244.585 245 0 64.176-24.675 122.588-65.054 166.268-.619.669-1.674.669-2.302.008-44.638-46.983-107.72-76.276-177.644-76.276-69.922 0-133.003 29.291-177.641 76.273-.629.662-1.687.663-2.308-.008z" fill="#01988c"/><path d="m487.882 195.143c-27.061 105.869-123.08 184.143-237.382 184.143s-210.321-78.274-237.382-184.143c27.061-105.87 123.08-184.143 237.382-184.143s210.321 78.273 237.382 184.143z" fill="#0ab59e"/><path d="m352.001 61.877 77.403 96.754c.709.887 1.096 1.988 1.096 3.123v260.455c-44.761 48.451-108.837 78.791-180 78.791s-135.239-30.34-180-78.791v-347.209c0-8.284 6.716-15 15-15h262.597c1.519 0 2.955.69 3.904 1.877z" fill="#f7e6b0"/><path d="m94.5 444.924c-8.501-7.028-16.52-14.618-24-22.714v-347.21c0-8.284 6.716-15 15-15h24c-8.284 0-15 6.716-15 15z" fill="#f5dc90"/><path d="m352.001 61.876 77.404 96.755c.332.415.593.878.777 1.369h-69.682c-5.523 0-10-4.477-10-10v-89.385c.572.314 1.084.74 1.501 1.261z" fill="#fff5f5"/><path d="m210.5 330v-5c0-2.761 2.239-5 5-5h70c2.761 0 5 2.239 5 5v5c0 2.761-2.239 5-5 5h-70c-2.761 0-5-2.239-5-5zm151 35h-222c-2.761 0-5 2.239-5 5v5c0 2.761 2.239 5 5 5h222c2.761 0 5-2.239 5-5v-5c0-2.761-2.239-5-5-5zm-24.75 60h-172.5c-2.761 0-5 2.239-5 5v5c0 2.761 2.239 5 5 5h172.5c2.761 0 5-2.239 5-5v-5c0-2.761-2.239-5-5-5zm24.75-30h-222c-2.761 0-5 2.239-5 5v5c0 2.761 2.239 5 5 5h222c2.761 0 5-2.239 5-5v-5c0-2.761-2.239-5-5-5z" fill="#f5b65d"/><path d="m250.5 92.5c-26.191 0-47.5 21.309-47.5 47.5v70c0 4.143 3.357 7.5 7.5 7.5h80c4.143 0 7.5-3.357 7.5-7.5v-70c0-26.191-21.309-47.5-47.5-47.5zm32.5 110h-65v-62.5c0-17.921 14.579-32.5 32.5-32.5s32.5 14.579 32.5 32.5z" fill="#172a7d"/><path d="m306 280h-111c-8.284 0-15-6.716-15-15v-90c0-8.284 6.716-15 15-15h111c8.284 0 15 6.716 15 15v90c0 8.284-6.716 15-15 15z" fill="#314dc8"/><path d="m244.5 192.5v-32.5h15v32.5c0 4.142-3.358 7.5-7.5 7.5s-7.5-3.358-7.5-7.5zm7.5 67.5c-4.142 0-7.5 3.358-7.5 7.5v12.5h15v-12.5c0-4.142-3.358-7.5-7.5-7.5zm-41.5-10c-4.142 0-7.5 3.358-7.5 7.5v22.5h15v-22.5c0-4.142-3.358-7.5-7.5-7.5zm40.829-37.478c-5.896-.317-11.1 2.772-13.822 7.478h-16.507c-1.657 0-3-1.343-3-3v-57.5c0-4.142-3.358-7.5-7.5-7.5s-7.5 3.358-7.5 7.5v60.5c0 8.284 6.716 15 15 15h19.507c2.594 4.483 7.441 7.5 12.993 7.5 8.523 0 15.385-7.108 14.983-15.719-.354-7.591-6.566-13.851-14.154-14.259zm39.171-42.522c-8.284 0-15 6.716-15 15 0 5.552 3.017 10.399 7.5 12.993v82.007h15v-82.007c4.483-2.594 7.5-7.441 7.5-12.993 0-8.284-6.716-15-15-15z" fill="#172a7d"/><path d="m129.5 195v100c0 2.761-2.239 5-5 5h-5c-2.761 0-5-2.239-5-5v-100c0-2.761 2.239-5 5-5h5c2.761 0 5 2.239 5 5z" fill="#172a7d"/><path d="m109.5 105v-100c0-2.761 2.239-5 5-5h15c2.761 0 5 2.239 5 5v100c0 2.761-2.239 5-5 5h-15c-2.761 0-5-2.239-5-5zm35 98h-45c-2.761 0-5 2.239-5 5v34.5c0 15.188 12.312 27.5 27.5 27.5s27.5-12.312 27.5-27.5v-34.5c0-2.761-2.239-5-5-5z" fill="#fd4fb6"/><path d="m114.5 203h30c2.761 0 5 2.239 5 5v34.5c0 12.588-8.458 23.2-20 26.465-11.542-3.265-20-13.877-20-26.465v-34.5c0-2.761 2.239-5 5-5z" fill="#fd73c4"/><path d="m134.5 210h-40v-175c0-8.284 6.716-15 15-15h25z" fill="#d80d80"/><path d="m149.5 210h-40v-190h25c8.284 0 15 6.716 15 15z" fill="#fd2aa7"/></g></svg>